<svg height="32" viewBox="0 0 32 32" width="32" xmlns="http://www.w3.org/2000/svg"><path d="m2.401 24h-2.401v8h8v-2.401h-5.599zm28.266-24h-11.906c-.896-.005-1.729.443-2.229 1.188l-4.531 6.797h-10.667c-.734 0-1.333.599-1.333 1.333v7.333l4.667 4.818 1.599-1.724 2 2-1.599 1.63 1.974 1.974 1.625-1.63 2 2.016-1.599 1.599 4.667 4.667h7.333c.734 0 1.333-.599 1.333-1.333v-10.667l6.813-4.531c.75-.5 1.193-1.344 1.188-2.24v-11.896c0-.734-.599-1.333-1.333-1.333zm-6.667 12c-5.333 0-5.333-8 0-8s5.333 8 0 8z"/></svg>